<?xml version="1.0" encoding="UTF-8"?>
<svg id="Layer_1" xmlns="http://www.w3.org/2000/svg" version="1.1" viewBox="0 0 1080 363.8">
  <!-- Generator: Adobe Illustrator 29.2.1, SVG Export Plug-In . SVG Version: 2.1.0 Build 116)  -->
  <defs>
    <style>
      .st0 {
        fill: #00297a;
      }

      .st1 {
        fill: #2b67ff;
      }

      .st2 {
        fill: #05a7ff;
      }
    </style>
  </defs>
  <g>
    <path class="st2" d="M118,221c-16.9,4.6-31.5,8.6-47.3,12.9,12.9,15.6,25.1,10.9,47.3-12.9Z"/>
    <path class="st2" d="M100.6,164.2c.8-.9-6-9.5-7-11.4-24.3-31.7-48.6-63.5-74.2-96.9-3.9,15.7-5.1,29.1,5.2,39,21.6,20.9,53.8,49.2,76,69.3Z"/>
    <path class="st2" d="M36.8,208.2c12.6,18.8,35.7,17.8,64-1.3-21.5.4-42.1.9-64,1.3Z"/>
    <path class="st2" d="M98.2,191.6c0-.9-5-2.7-8.1-3.8-26.7-5.8-53.3-11.5-81.5-17.6,5.3,13.3,13,21.2,24.7,21.7,18.8.8,46.1-.1,65-.4Z"/>
    <path class="st2" d="M20.9,149.3c20.1,7.8,54.8,18.6,75.3,25.3-.2-1-9.5-6-12.5-7.9-25.9-16.4-51.8-32.8-79-50,.9,17,5.5,28.3,16.2,32.5Z"/>
    <path class="st2" d="M150.2,239.4c-6.1,6.6-11.4,12.4-17.8,19.3,14.5,2.1,17.9-1.9,17.8-19.3Z"/>
    <path class="st2" d="M128.3,149.7c-.2-.5-.5-1-.8-1.5.2.5.5,1,.8,1.5Z"/>
    <path class="st2" d="M100.3,250.5c15.3,7.9,19.6,5.8,32.4-17-10.5,5.5-21.1,11.1-32.4,17Z"/>
    <g>
      <path class="st2" d="M138.4,168.4s0,0,0,0c0,0,0,0,0-.1,0,0,0,0,0,0Z"/>
      <path class="st2" d="M156.5,187.4c-6.9-6.4-12.9-12.8-18.1-19,.3.6.6,1.1.9,1.7C101,125.5,83.2,71.3,67.5,14.4c-9.7,19.7-11.2,44.4-2.5,64.1,7.2,16.4,15.7,32.4,25.6,47.3,0,0,20.7,34.1,64.1,68.8.5-2.5,1.1-4.9,1.8-7.2Z"/>
    </g>
    <path class="st1" d="M194.5,137.5h0s0,0,0,0c9.1-5.6,19.2-9.6,30.1-11.6,6.1-39.8,12.9-82.5,18.9-121.9-1.2.9-2.1,1.5-3.4,2.9-28,23.7-23.7,59.6-34,90.4.1-32,.2-64,.3-95.9-28,30.8-18.3,69.1-23.9,104.7-4.4-31.7-8.8-63.4-13.2-95.2-28.2,37.2-8,76.1-7.5,114.9-7.6-23.6-15.2-47.1-23.2-71.8-9.1,16.3-9.4,32.1-4.5,48,4.8,15.4,14,39,19.4,54.1-1-.6-4.4-6.3-5.4-7.6-8.3-14-19.1-32.5-27.4-46.5-1,.2-.6,3.5-.6,5.2,1.4,11.2,1.4,22.8,4.6,33.4,2.9,9.7,8.8,18.6,13.6,27.8,5.2,6.1,11.2,12.5,18.1,19,6.1-20.9,19.8-38.6,38-49.9Z"/>
    <g>
      <path class="st0" d="M348.7,332h-11.8v30.4h-4.3v-30.4h-11.8v-3.9h28v3.9Z"/>
      <path class="st0" d="M377.8,362.4v-34.2h14.6c1.5,0,2.9.3,4.2.9,1.3.6,2.4,1.5,3.3,2.5.9,1,1.6,2.2,2.1,3.5.5,1.3.8,2.6.8,4s-.2,2.3-.5,3.4c-.3,1.1-.8,2.1-1.4,3-.6.9-1.4,1.7-2.3,2.3-.9.6-1.9,1.1-3,1.4l8.3,13.1h-4.9l-7.8-12.3h-9.1v12.3h-4.3ZM382.1,346.2h10.4c.9,0,1.7-.2,2.4-.6.7-.4,1.3-.9,1.9-1.6.5-.7.9-1.4,1.2-2.3.3-.9.4-1.8.4-2.7s-.2-1.9-.5-2.7c-.3-.9-.8-1.6-1.3-2.3-.6-.7-1.2-1.2-2-1.5-.8-.4-1.5-.6-2.4-.6h-10.1v14.2Z"/>
      <path class="st0" d="M443.9,328.1h3.7l14,34.2h-4.6l-4-10h-14.4l-4,10h-4.6l14-34.2ZM451.9,349l-6.2-15.8-6.4,15.8h12.5Z"/>
      <path class="st0" d="M488.4,328.1l11.3,28.8,11.3-28.8h4.6l-14,34.2h-3.8l-14-34.2h4.6Z"/>
      <path class="st0" d="M567.5,358.5v3.9h-23.2v-34.2h22.8v3.9h-18.5v11.1h16v3.6h-16v11.8h18.9Z"/>
      <path class="st0" d="M597.6,362.4v-34.2h4.3v30.4h19.1v3.9h-23.4Z"/>
      <path class="st0" d="M669.9,335.3c-.4-.4-.9-.9-1.5-1.3-.6-.4-1.4-.8-2.2-1.1s-1.7-.6-2.6-.8-1.9-.3-3-.3c-2.7,0-4.6.5-5.9,1.5-1.2,1-1.9,2.4-1.9,4.1s.2,1.7.5,2.3c.4.6.9,1.1,1.7,1.6.8.4,1.7.8,2.8,1.1,1.1.3,2.5.7,4,1,1.8.4,3.4.8,4.8,1.3,1.4.5,2.6,1.1,3.7,1.9,1,.7,1.8,1.6,2.3,2.7.5,1.1.8,2.4.8,3.9s-.3,3.1-1,4.3-1.5,2.2-2.6,3c-1.1.8-2.4,1.4-3.9,1.7-1.5.4-3.2.6-4.9.6-2.6,0-5.1-.4-7.5-1.2-2.4-.8-4.5-2-6.4-3.6l2.1-3.7c.5.5,1.2,1.1,2,1.6.8.6,1.7,1,2.8,1.5,1,.4,2.2.8,3.4,1.1,1.2.3,2.5.4,3.8.4,2.4,0,4.3-.4,5.7-1.3s2-2.2,2-3.9-.2-1.8-.6-2.4-1.1-1.2-1.9-1.7c-.8-.5-1.9-.9-3.1-1.3-1.2-.4-2.6-.7-4.2-1.1-1.7-.4-3.3-.9-4.6-1.3-1.3-.5-2.4-1.1-3.3-1.7-.9-.7-1.5-1.5-2-2.5s-.7-2.1-.7-3.5.3-3.1.9-4.3,1.5-2.3,2.6-3.2c1.1-.9,2.4-1.5,3.9-1.9,1.5-.4,3.1-.6,4.9-.6s4.4.4,6.3,1.1,3.5,1.7,5,2.8l-2,3.5Z"/>
    </g>
    <g>
      <path class="st0" d="M452.7,183.2c-11.6-23.9-34.7-42.4-65.1-42.4s-73.1,33.8-73.1,78.2,31.8,78.3,73.1,78.3,53.5-18.6,65.1-42.6v39.9h21.1v-151.2h-21.1v39.9ZM387.5,269c-36,0-64.5-20.8-64.5-50s27.2-49.9,64.5-49.9,64.5,21.1,64.5,49.9-27.1,50-64.5,50Z"/>
      <path class="st0" d="M633,168.9v-25.5h-145v25.4l122.3-8c-44.2,40.7-67.5,64.1-117,108.1v25.8h145v-25.4l-122.3,7.9c51.8-47.9,71.3-67.4,117-108.3Z"/>
      <path class="st0" d="M773.6,239.2c-1,25.8-36.1,29.8-52.1,29.8s-13.9-.3-24.5-2.6c-15.6-3.2-29.8-10.9-30.4-27.2v-95.8h-21.1v75.6c0,43,32.1,78.3,73.1,78.3h2.9c21.7,0,39.4-9.6,52.1-23.4v44.2c0,10.8-8,16.1-23.9,16.1h-21.7l-9.2,28.3h33.1c28.5,0,42.7-14.6,42.7-43.7v-175.2h-21.1v95.8Z"/>
      <path class="st0" d="M811.1,303.8h21.1v-139.4h25.2v-21.1h-25.2v-9c0-10.8,8-16.1,24.1-16.1h21.7l9-28.1h-33.1c-28.5,0-42.7,14.5-42.7,43.6v9.6h-7.9v21.1h7.9v139.4Z"/>
      <rect class="st0" x="894.2" y="90.2" width="21.1" height="204.4"/>
      <path class="st0" d="M1057.6,143.4v95.8c-1,25.8-36.1,29.8-52.1,29.8s-13.9-.3-24.5-2.6c-15.6-3.2-29.8-10.9-30.4-27.2v-95.8h-21.1v75.6c0,43,32.1,78.3,73.1,78.3h2.9c21.7,0,39.4-9.6,52.1-23.4v44.2c0,10.8-8,16.1-23.9,16.1h-214.2l-9.4,28.3h225.9c28.5,0,42.7-14.6,42.7-43.7v-175.2h-21.1Z"/>
    </g>
  </g>
  <path class="st0" d="M236.6,268.9c-20.2-.4-36.4-5.9-48.6-16.3l121.6-49.9-7.3-18.2c-11.2-24.4-34.8-43.6-65.7-43.6s-64.9,26.2-71.7,62.4l9,3.7h0c6.3-21.9,30.3-37.8,62.9-37.8s38.7,7.6,49.8,18.1l1.4,1.6v.3c-37.3,14.6-74.7,30-112.4,45.9l-9.5,4.9c8.4,32.9,36.3,57.4,70.5,57.4s54.2-19.1,65.7-43.7l-15.6-2.3c-11,10.5-28.3,17.8-50,17.8Z"/>
</svg>