<?xml version="1.0" encoding="UTF-8"?>
<svg id="Layer_1" xmlns="http://www.w3.org/2000/svg" version="1.1" viewBox="0 0 375.3 363.8">
  <!-- Generator: Adobe Illustrator 29.2.1, SVG Export Plug-In . SVG Version: 2.1.0 Build 116)  -->
  <defs>
    <style>
      .st0 {
        fill: #00297a;
      }

      .st1 {
        fill: #2b67ff;
      }

      .st2 {
        fill: #05a7ff;
      }
    </style>
  </defs>
  <g>
    <path class="st2" d="M139.8,269.4c-20.6,5.6-38.5,10.5-57.8,15.8,15.8,19.1,30.7,13.4,57.8-15.8Z"/>
    <path class="st2" d="M118.6,200.1c1-1.2-7.4-11.7-8.5-14-29.7-38.8-59.4-77.6-90.7-118.5-4.7,19.2-6.2,35.6,6.3,47.7,26.4,25.5,65.8,60.1,93,84.8Z"/>
    <path class="st2" d="M40.6,253.8c15.4,23,43.7,21.8,78.3-1.6-26.3.5-51.5,1.1-78.3,1.6Z"/>
    <path class="st2" d="M115.6,233.6c-.1-1.1-6.1-3.3-9.9-4.6-32.6-7-65.2-14.1-99.7-21.5,6.5,16.3,15.8,25.9,30.2,26.6,23,1,56.4-.2,79.4-.4Z"/>
    <path class="st2" d="M21.1,181.9c24.6,9.6,67,22.7,92.1,31-.3-1.2-11.6-7.3-15.3-9.6-31.7-20-63.4-40.1-96.6-61.1,1.2,20.8,6.7,34.6,19.8,39.7Z"/>
    <path class="st2" d="M179.3,292c-7.5,8.1-14,15.2-21.8,23.6,17.7,2.5,21.9-2.3,21.8-23.6Z"/>
    <path class="st2" d="M152.5,182.3c-.3-.6-.6-1.2-.9-1.9.3.6.6,1.2.9,1.9Z"/>
    <path class="st2" d="M118.2,305.6c18.7,9.7,23.9,7.1,39.6-20.8-12.9,6.8-25.8,13.5-39.6,20.8Z"/>
    <g>
      <path class="st2" d="M164.7,205.2s0,0,0,0c0,0,0,0,0-.1,0,0,0,0,0,.1Z"/>
      <path class="st2" d="M186.9,228.4c-8.5-7.9-15.8-15.7-22.2-23.2.4.7.8,1.4,1.1,2.1-46.8-54.5-68.5-120.8-87.8-190.5-11.8,24.1-13.7,54.3-3.1,78.4,8.8,20,19.1,39.7,31.3,57.8,0,0,25.3,41.7,78.4,84.2.6-3,1.4-5.9,2.2-8.8Z"/>
    </g>
    <path class="st1" d="M233.3,167.4h0s0,0,0,0c11.1-6.9,23.5-11.7,36.8-14.2,7.5-48.6,15.7-100.9,23.2-149.1-1.4,1.1-2.6,1.8-4.2,3.5-34.2,28.9-29,72.8-41.6,110.5.1-39.1.3-78.2.4-117.3-34.2,37.7-22.4,84.4-29.2,128.1-5.4-38.8-10.8-77.6-16.2-116.4-34.5,45.5-9.7,93-9.2,140.5-9.3-28.8-18.6-57.6-28.4-87.8-11.1,19.9-11.5,39.2-5.4,58.7,5.8,18.8,17.1,47.6,23.7,66.2-1.3-.7-5.4-7.7-6.6-9.3-10.2-17.1-23.3-39.7-33.5-56.9-1.2.3-.7,4.3-.7,6.4,1.7,13.7,1.7,27.9,5.6,40.8,3.6,11.9,10.7,22.7,16.6,33.9,6.4,7.5,13.7,15.3,22.2,23.2,7.5-25.6,24.3-47.2,46.4-61Z"/>
  </g>
  <path class="st0" d="M284.8,328.1c-24.7-.5-44.5-7.2-59.4-20l148.7-61-8.9-22.3c-13.7-29.8-42.6-53.3-80.3-53.3s-79.4,32-87.6,76.3l10.9,4.5h0c7.7-26.8,37.1-46.2,76.9-46.2s47.3,9.3,60.8,22.1l1.8,1.9-.2.4c-45.4,17.9-91.2,36.6-137.3,56.1l-11.6,5.9c10.3,40.3,44.4,70.1,86.3,70.1s66.3-23.3,80.3-53.5l-19.1-2.8c-13.5,12.8-34.5,21.7-61.2,21.7Z"/>
</svg>